<?xml version="1.0" encoding="UTF-8" standalone="no"?>
<!-- Created with Inkscape (http://www.inkscape.org/) -->

<svg
   xmlns:dc="http://purl.org/dc/elements/1.1/"
   xmlns:cc="http://creativecommons.org/ns#"
   xmlns:rdf="http://www.w3.org/1999/02/22-rdf-syntax-ns#"
   xmlns:svg="http://www.w3.org/2000/svg"
   xmlns="http://www.w3.org/2000/svg"
   xmlns:sodipodi="http://sodipodi.sourceforge.net/DTD/sodipodi-0.dtd"
   xmlns:inkscape="http://www.inkscape.org/namespaces/inkscape"
   width="500"
   height="150"
   id="svg3114"
   version="1.1"
   inkscape:version="0.48.0 r9654"
   sodipodi:docname="WebAppLogo.svg">
  <defs
     id="defs3116" />
  <sodipodi:namedview
     id="base"
     pagecolor="#ffffff"
     bordercolor="#666666"
     borderopacity="1.0"
     inkscape:pageopacity="0.0"
     inkscape:pageshadow="2"
     inkscape:zoom="0.98994949"
     inkscape:cx="-81.590616"
     inkscape:cy="-111.1223"
     inkscape:document-units="px"
     inkscape:current-layer="layer1"
     showgrid="false"
     inkscape:window-width="1412"
     inkscape:window-height="747"
     inkscape:window-x="200"
     inkscape:window-y="200"
     inkscape:window-maximized="0"
     fit-margin-top="0"
     fit-margin-left="0"
     fit-margin-right="0"
     fit-margin-bottom="0" />
  <metadata
     id="metadata3119">
    <rdf:RDF>
      <cc:Work
         rdf:about="">
        <dc:format>image/svg+xml</dc:format>
        <dc:type
           rdf:resource="http://purl.org/dc/dcmitype/StillImage" />
      </cc:Work>
    </rdf:RDF>
  </metadata>
  <g
     inkscape:label="Ebene 1"
     inkscape:groupmode="layer"
     id="layer1"
     transform="translate(-138.57143,-283.79074)">
    <rect
       style="fill:#000000;fill-opacity:1;fill-rule:nonzero;stroke:none"
       id="rect3122"
       width="500"
       height="150"
       x="138.57143"
       y="283.79074"
       rx="10"
       ry="10" />
    <g
       style="stroke:none"
       id="icomoon-ignore"
       transform="translate(147.05087,410.48391)" />
    <path
       style="fill:#ffffff;fill-opacity:1;stroke:none"
       inkscape:connector-curvature="0"
       d="m 213.80572,311.48896 c -24.78552,0 -44.87812,20.0926 -44.87812,44.87812 0,24.78552 20.0926,44.87812 44.87812,44.87812 24.78552,0 44.87812,-20.0926 44.87812,-44.87812 0,-24.78552 -20.0926,-44.87812 -44.87812,-44.87812 z m 0,84.14665 c -5.51843,0 -10.77005,-1.14054 -15.53467,-3.19512 l 20.43603,-22.99039 c 0.45631,-0.51347 0.7084,-1.17647 0.7084,-1.86349 v -8.41465 c 0,-1.54917 -1.25571,-2.80488 -2.80488,-2.80488 -9.90386,0 -20.35328,-10.29585 -20.45583,-10.39788 -0.52592,-0.52609 -1.23941,-0.82165 -1.98323,-0.82165 h -11.21953 c -1.549,0 -2.80488,1.25589 -2.80488,2.80488 v 16.82929 c 0,1.06253 0.60025,2.03372 1.55057,2.5088 l 9.66896,4.83456 v 16.46869 c -10.17226,-7.096 -16.82929,-18.88316 -16.82929,-32.22669 0,-6.02296 1.35773,-11.72844 3.78115,-16.82929 h 10.24326 c 0.74399,0 1.45731,-0.29557 1.9834,-0.82149 l 11.21953,-11.21952 c 0.52591,-0.5261 0.82148,-1.23941 0.82148,-1.98341 v -6.78536 c 3.55536,-1.05831 7.32057,-1.62928 11.21953,-1.62928 6.17126,0 12.00875,1.42523 17.20462,3.96189 -0.36323,0.30696 -0.71664,0.62795 -1.05586,0.96734 -3.17881,3.17863 -4.92923,7.40471 -4.92923,11.90006 0,4.49535 1.75042,8.72143 4.92923,11.90006 3.19353,3.19336 7.46957,4.93169 11.88867,4.93134 0.2775,0 0.55589,-0.007 0.83427,-0.0207 1.21084,4.54058 3.39672,16.36088 -0.73663,32.63604 -0.0389,0.15286 -0.061,0.30573 -0.0738,0.45789 -7.12826,7.28218 -17.06596,11.80295 -28.06127,11.80295 z"
       id="path4297" />
    <text
       xml:space="preserve"
       style="font-size:40px;font-style:normal;font-variant:normal;font-weight:normal;font-stretch:normal;line-height:125%;letter-spacing:0px;word-spacing:0px;fill:#ffffff;fill-opacity:1;stroke:none;font-family:Segoe WP;-inkscape-font-specification:Segoe WP"
       x="320.71429"
       y="358.07648"
       id="text4311"
       sodipodi:linespacing="125%"><tspan
         sodipodi:role="line"
         id="tspan4313"
         x="320.71429"
         y="358.07648" /></text>
    <text
       xml:space="preserve"
       style="font-size:40px;font-style:normal;font-variant:normal;font-weight:normal;font-stretch:normal;line-height:125%;letter-spacing:0px;word-spacing:0px;fill:#000000;fill-opacity:1;stroke:none;font-family:Segoe WP;-inkscape-font-specification:Segoe WP"
       x="318.57144"
       y="314.50504"
       id="text4315"
       sodipodi:linespacing="125%"><tspan
         sodipodi:role="line"
         id="tspan4317"
         x="318.57144"
         y="314.50504" /></text>
    <text
       xml:space="preserve"
       style="font-size:61.17552567px;font-style:normal;font-variant:normal;font-weight:normal;font-stretch:normal;line-height:103.99999619%;letter-spacing:0px;word-spacing:0px;fill:#ffffff;fill-opacity:1;stroke:none;font-family:Segoe WP;-inkscape-font-specification:Segoe WP"
       x="447.49799"
       y="344.03036"
       id="text4319"
       sodipodi:linespacing="104%"><tspan
         sodipodi:role="line"
         id="tspan4321"
         x="455.86182"
         y="344.03036"
         style="font-weight:normal;text-align:center;line-height:103.99999619%;text-anchor:middle;-inkscape-font-specification:Segoe WP">Go to  </tspan><tspan
         sodipodi:role="line"
         x="447.49799"
         y="407.65292"
         id="tspan4323"
         style="font-weight:normal;text-align:center;line-height:103.99999619%;text-anchor:middle;-inkscape-font-specification:Segoe WP">Web App</tspan></text>
  </g>
</svg>
